<mxfile host="app.diagrams.net" agent="Mozilla/5.0 (Windows NT 10.0; Win64; x64) AppleWebKit/537.36 (KHTML, like Gecko) Chrome/132.0.0.0 Safari/537.36" version="26.0.10">
  <diagram name="Page-1" id="19d8dcba-68ad-dc05-1034-9cf7b2a963f6">
    <mxGraphModel dx="1173" dy="475" grid="1" gridSize="10" guides="1" tooltips="1" connect="1" arrows="1" fold="1" page="1" pageScale="1" pageWidth="1100" pageHeight="850" background="none" math="0" shadow="0">
      <root>
        <mxCell id="0" />
        <mxCell id="1" parent="0" />
        <mxCell id="218ae93e1282097f-19" value="" style="whiteSpace=wrap;html=1;rounded=1;shadow=0;comic=0;strokeWidth=2;fontFamily=Verdana;align=center;fontSize=10;" parent="1" vertex="1">
          <mxGeometry x="790" y="325" width="400" height="340" as="geometry" />
        </mxCell>
        <mxCell id="218ae93e1282097f-29" value="" style="whiteSpace=wrap;html=1;rounded=1;shadow=0;comic=0;strokeWidth=2;fontFamily=Verdana;align=center;fontSize=10;" parent="1" vertex="1">
          <mxGeometry x="1202" y="330" width="300" height="220" as="geometry" />
        </mxCell>
        <mxCell id="218ae93e1282097f-42" value="" style="edgeStyle=orthogonalEdgeStyle;rounded=1;html=1;labelBackgroundColor=none;endArrow=block;endFill=1;strokeColor=#4D4D4D;strokeWidth=2;fontFamily=Verdana;fontSize=12;fontStyle=1" parent="1" source="6257edae8c83ed4a-1" target="6257edae8c83ed4a-12" edge="1">
          <mxGeometry relative="1" as="geometry" />
        </mxCell>
        <mxCell id="218ae93e1282097f-44" value="" style="edgeStyle=orthogonalEdgeStyle;rounded=1;html=1;labelBackgroundColor=none;endArrow=block;endFill=1;strokeColor=#4D4D4D;strokeWidth=2;fontFamily=Verdana;fontSize=12;fontStyle=1" parent="1" source="6257edae8c83ed4a-1" target="218ae93e1282097f-2" edge="1">
          <mxGeometry relative="1" as="geometry" />
        </mxCell>
        <mxCell id="218ae93e1282097f-45" value="" style="edgeStyle=elbowEdgeStyle;rounded=1;html=1;labelBackgroundColor=none;endArrow=block;endFill=1;strokeColor=#4D4D4D;strokeWidth=2;fontFamily=Verdana;fontSize=12;fontStyle=1;entryX=0.5;entryY=0;entryDx=0;entryDy=0;" parent="1" source="6257edae8c83ed4a-9" target="218ae93e1282097f-19" edge="1">
          <mxGeometry relative="1" as="geometry">
            <mxPoint x="975" y="335" as="targetPoint" />
          </mxGeometry>
        </mxCell>
        <mxCell id="218ae93e1282097f-48" value="" style="edgeStyle=orthogonalEdgeStyle;rounded=1;html=1;labelBackgroundColor=none;endArrow=block;endFill=1;strokeColor=#4D4D4D;strokeWidth=2;fontFamily=Verdana;fontSize=12;fontStyle=1" parent="1" source="218ae93e1282097f-2" target="218ae93e1282097f-29" edge="1">
          <mxGeometry relative="1" as="geometry">
            <mxPoint x="1347" y="330" as="targetPoint" />
            <Array as="points">
              <mxPoint x="1347" y="295" />
              <mxPoint x="1348" y="295" />
            </Array>
          </mxGeometry>
        </mxCell>
        <mxCell id="218ae93e1282097f-61" value="boat_view_bokeh.py" style="text;html=1;strokeColor=none;fillColor=none;align=center;verticalAlign=middle;whiteSpace=wrap;rounded=1;shadow=0;comic=0;fontFamily=Verdana;fontSize=10;" parent="1" vertex="1">
          <mxGeometry x="831" y="342.5" width="90" height="25" as="geometry" />
        </mxCell>
        <mxCell id="218ae93e1282097f-62" value="bokeh_main.py" style="text;html=1;strokeColor=none;fillColor=none;align=center;verticalAlign=middle;whiteSpace=wrap;rounded=1;shadow=0;comic=0;fontFamily=Verdana;fontSize=10;" parent="1" vertex="1">
          <mxGeometry x="931" y="342.5" width="90" height="25" as="geometry" />
        </mxCell>
        <mxCell id="218ae93e1282097f-63" value="dependencies.sh" style="text;html=1;strokeColor=none;fillColor=none;align=center;verticalAlign=middle;whiteSpace=wrap;rounded=1;shadow=0;comic=0;fontFamily=Verdana;fontSize=10;" parent="1" vertex="1">
          <mxGeometry x="1031" y="342.5" width="90" height="25" as="geometry" />
        </mxCell>
        <mxCell id="218ae93e1282097f-64" value="boats_bokeh.py" style="text;html=1;strokeColor=none;fillColor=none;align=center;verticalAlign=middle;whiteSpace=wrap;rounded=1;shadow=0;comic=0;fontFamily=Verdana;fontSize=10;" parent="1" vertex="1">
          <mxGeometry x="831" y="377.5" width="90" height="25" as="geometry" />
        </mxCell>
        <mxCell id="218ae93e1282097f-65" value="get_grib.py" style="text;html=1;strokeColor=none;fillColor=none;align=center;verticalAlign=middle;whiteSpace=wrap;rounded=1;shadow=0;comic=0;fontFamily=Verdana;fontSize=10;" parent="1" vertex="1">
          <mxGeometry x="931" y="377.5" width="90" height="25" as="geometry" />
        </mxCell>
        <mxCell id="218ae93e1282097f-66" value="grib_manager_bokeh.py" style="text;html=1;strokeColor=none;fillColor=none;align=center;verticalAlign=middle;whiteSpace=wrap;rounded=1;shadow=0;comic=0;fontFamily=Verdana;fontSize=10;" parent="1" vertex="1">
          <mxGeometry x="1031" y="377.5" width="90" height="25" as="geometry" />
        </mxCell>
        <mxCell id="6257edae8c83ed4a-9" value="main" style="whiteSpace=wrap;html=1;rounded=1;shadow=0;comic=0;strokeWidth=2;fontFamily=Verdana;align=center;fontSize=12;fontStyle=1" parent="1" vertex="1">
          <mxGeometry x="876" y="215" width="200" height="50" as="geometry" />
        </mxCell>
        <mxCell id="6257edae8c83ed4a-12" value="gribs" style="whiteSpace=wrap;html=1;rounded=1;shadow=0;comic=0;strokeWidth=2;fontFamily=Verdana;align=center;fontSize=12;fontStyle=1" parent="1" vertex="1">
          <mxGeometry x="530" y="210" width="200" height="50" as="geometry" />
        </mxCell>
        <mxCell id="jTmxVJYuNMx-6TRiUGwE-62" style="edgeStyle=orthogonalEdgeStyle;rounded=0;orthogonalLoop=1;jettySize=auto;html=1;" edge="1" parent="1" source="6257edae8c83ed4a-1" target="6257edae8c83ed4a-9">
          <mxGeometry relative="1" as="geometry" />
        </mxCell>
        <mxCell id="6257edae8c83ed4a-1" value="NEA" style="whiteSpace=wrap;html=1;rounded=1;shadow=0;comic=0;strokeWidth=2;fontFamily=Verdana;align=center;fontSize=12;fontStyle=1" parent="1" vertex="1">
          <mxGeometry x="876" y="120" width="200" height="50" as="geometry" />
        </mxCell>
        <mxCell id="218ae93e1282097f-2" value="Boats" style="whiteSpace=wrap;html=1;rounded=1;shadow=0;comic=0;strokeWidth=2;fontFamily=Verdana;align=center;fontSize=12;fontStyle=1" parent="1" vertex="1">
          <mxGeometry x="1247" y="210" width="200" height="50" as="geometry" />
        </mxCell>
        <mxCell id="jTmxVJYuNMx-6TRiUGwE-7" value="boats.py" style="text;html=1;strokeColor=none;fillColor=none;align=center;verticalAlign=middle;whiteSpace=wrap;rounded=1;shadow=0;comic=0;fontFamily=Verdana;fontSize=10;" vertex="1" parent="1">
          <mxGeometry x="831" y="407.5" width="90" height="25" as="geometry" />
        </mxCell>
        <mxCell id="jTmxVJYuNMx-6TRiUGwE-8" value="globals.py" style="text;html=1;strokeColor=none;fillColor=none;align=center;verticalAlign=middle;whiteSpace=wrap;rounded=1;shadow=0;comic=0;fontFamily=Verdana;fontSize=10;" vertex="1" parent="1">
          <mxGeometry x="931" y="407.5" width="90" height="25" as="geometry" />
        </mxCell>
        <mxCell id="jTmxVJYuNMx-6TRiUGwE-9" value="Grib_Options.py" style="text;html=1;strokeColor=none;fillColor=none;align=center;verticalAlign=middle;whiteSpace=wrap;rounded=1;shadow=0;comic=0;fontFamily=Verdana;fontSize=10;" vertex="1" parent="1">
          <mxGeometry x="1031" y="407.5" width="90" height="25" as="geometry" />
        </mxCell>
        <mxCell id="jTmxVJYuNMx-6TRiUGwE-10" value="Interactive_Viewer.html" style="text;html=1;strokeColor=none;fillColor=none;align=center;verticalAlign=middle;whiteSpace=wrap;rounded=1;shadow=0;comic=0;fontFamily=Verdana;fontSize=10;" vertex="1" parent="1">
          <mxGeometry x="831" y="432.5" width="90" height="25" as="geometry" />
        </mxCell>
        <mxCell id="jTmxVJYuNMx-6TRiUGwE-11" value="Interactive_Viewer.py" style="text;html=1;strokeColor=none;fillColor=none;align=center;verticalAlign=middle;whiteSpace=wrap;rounded=1;shadow=0;comic=0;fontFamily=Verdana;fontSize=10;" vertex="1" parent="1">
          <mxGeometry x="1031" y="432.5" width="90" height="25" as="geometry" />
        </mxCell>
        <mxCell id="jTmxVJYuNMx-6TRiUGwE-12" value="libweatherrouting_router.py" style="text;html=1;strokeColor=none;fillColor=none;align=center;verticalAlign=middle;whiteSpace=wrap;rounded=1;shadow=0;comic=0;fontFamily=Verdana;fontSize=10;" vertex="1" parent="1">
          <mxGeometry x="1040" y="460" width="90" height="25" as="geometry" />
        </mxCell>
        <mxCell id="jTmxVJYuNMx-6TRiUGwE-13" value="libweatherrouting_routing.py" style="text;html=1;strokeColor=none;fillColor=none;align=center;verticalAlign=middle;whiteSpace=wrap;rounded=1;shadow=0;comic=0;fontFamily=Verdana;fontSize=10;" vertex="1" parent="1">
          <mxGeometry x="841" y="460" width="90" height="25" as="geometry" />
        </mxCell>
        <mxCell id="jTmxVJYuNMx-6TRiUGwE-14" value="libweatherrouting_mock_grib.py" style="text;html=1;strokeColor=none;fillColor=none;align=center;verticalAlign=middle;whiteSpace=wrap;rounded=1;shadow=0;comic=0;fontFamily=Verdana;fontSize=10;" vertex="1" parent="1">
          <mxGeometry x="831" y="485" width="90" height="25" as="geometry" />
        </mxCell>
        <mxCell id="jTmxVJYuNMx-6TRiUGwE-15" value="libweatherrouting_linearbestisorouter.py" style="text;html=1;strokeColor=none;fillColor=none;align=center;verticalAlign=middle;whiteSpace=wrap;rounded=1;shadow=0;comic=0;fontFamily=Verdana;fontSize=10;" vertex="1" parent="1">
          <mxGeometry x="1040" y="485" width="90" height="25" as="geometry" />
        </mxCell>
        <mxCell id="jTmxVJYuNMx-6TRiUGwE-17" value="libweatherrouting_utils.py" style="text;html=1;strokeColor=none;fillColor=none;align=center;verticalAlign=middle;whiteSpace=wrap;rounded=1;shadow=0;comic=0;fontFamily=Verdana;fontSize=10;" vertex="1" parent="1">
          <mxGeometry x="831" y="510" width="90" height="25" as="geometry" />
        </mxCell>
        <mxCell id="jTmxVJYuNMx-6TRiUGwE-18" value="mainpage.py" style="text;html=1;strokeColor=none;fillColor=none;align=center;verticalAlign=middle;whiteSpace=wrap;rounded=1;shadow=0;comic=0;fontFamily=Verdana;fontSize=10;" vertex="1" parent="1">
          <mxGeometry x="945" y="510" width="90" height="25" as="geometry" />
        </mxCell>
        <mxCell id="jTmxVJYuNMx-6TRiUGwE-19" value="map_options.py" style="text;html=1;strokeColor=none;fillColor=none;align=center;verticalAlign=middle;whiteSpace=wrap;rounded=1;shadow=0;comic=0;fontFamily=Verdana;fontSize=10;" vertex="1" parent="1">
          <mxGeometry x="1050" y="510" width="90" height="25" as="geometry" />
        </mxCell>
        <mxCell id="jTmxVJYuNMx-6TRiUGwE-25" value="map.py" style="text;html=1;strokeColor=none;fillColor=none;align=center;verticalAlign=middle;whiteSpace=wrap;rounded=1;shadow=0;comic=0;fontFamily=Verdana;fontSize=10;" vertex="1" parent="1">
          <mxGeometry x="841" y="545" width="90" height="25" as="geometry" />
        </mxCell>
        <mxCell id="jTmxVJYuNMx-6TRiUGwE-26" value="new_boat_bokeh.py" style="text;html=1;strokeColor=none;fillColor=none;align=center;verticalAlign=middle;whiteSpace=wrap;rounded=1;shadow=0;comic=0;fontFamily=Verdana;fontSize=10;" vertex="1" parent="1">
          <mxGeometry x="941" y="545" width="90" height="25" as="geometry" />
        </mxCell>
        <mxCell id="jTmxVJYuNMx-6TRiUGwE-27" value="open_meteo.py" style="text;html=1;strokeColor=none;fillColor=none;align=center;verticalAlign=middle;whiteSpace=wrap;rounded=1;shadow=0;comic=0;fontFamily=Verdana;fontSize=10;" vertex="1" parent="1">
          <mxGeometry x="1060" y="545" width="90" height="25" as="geometry" />
        </mxCell>
        <mxCell id="jTmxVJYuNMx-6TRiUGwE-28" value="path.py" style="text;html=1;strokeColor=none;fillColor=none;align=center;verticalAlign=middle;whiteSpace=wrap;rounded=1;shadow=0;comic=0;fontFamily=Verdana;fontSize=10;" vertex="1" parent="1">
          <mxGeometry x="831" y="570" width="90" height="25" as="geometry" />
        </mxCell>
        <mxCell id="jTmxVJYuNMx-6TRiUGwE-29" value="routing_model.py" style="text;html=1;strokeColor=none;fillColor=none;align=center;verticalAlign=middle;whiteSpace=wrap;rounded=1;shadow=0;comic=0;fontFamily=Verdana;fontSize=10;" vertex="1" parent="1">
          <mxGeometry x="931" y="570" width="90" height="25" as="geometry" />
        </mxCell>
        <mxCell id="jTmxVJYuNMx-6TRiUGwE-30" value="routing_page.py" style="text;html=1;strokeColor=none;fillColor=none;align=center;verticalAlign=middle;whiteSpace=wrap;rounded=1;shadow=0;comic=0;fontFamily=Verdana;fontSize=10;" vertex="1" parent="1">
          <mxGeometry x="1050" y="570" width="90" height="25" as="geometry" />
        </mxCell>
        <mxCell id="jTmxVJYuNMx-6TRiUGwE-31" value="settings_bokeh.py" style="text;html=1;strokeColor=none;fillColor=none;align=center;verticalAlign=middle;whiteSpace=wrap;rounded=1;shadow=0;comic=0;fontFamily=Verdana;fontSize=10;" vertex="1" parent="1">
          <mxGeometry x="831" y="595" width="90" height="25" as="geometry" />
        </mxCell>
        <mxCell id="jTmxVJYuNMx-6TRiUGwE-33" value="startup.sh" style="text;html=1;strokeColor=none;fillColor=none;align=center;verticalAlign=middle;whiteSpace=wrap;rounded=1;shadow=0;comic=0;fontFamily=Verdana;fontSize=10;" vertex="1" parent="1">
          <mxGeometry x="931" y="595" width="90" height="25" as="geometry" />
        </mxCell>
        <mxCell id="jTmxVJYuNMx-6TRiUGwE-34" value="test_grib_class.py" style="text;html=1;strokeColor=none;fillColor=none;align=center;verticalAlign=middle;whiteSpace=wrap;rounded=1;shadow=0;comic=0;fontFamily=Verdana;fontSize=10;" vertex="1" parent="1">
          <mxGeometry x="1040" y="595" width="90" height="25" as="geometry" />
        </mxCell>
        <mxCell id="jTmxVJYuNMx-6TRiUGwE-35" value="test_routing_modle.py" style="text;html=1;strokeColor=none;fillColor=none;align=center;verticalAlign=middle;whiteSpace=wrap;rounded=1;shadow=0;comic=0;fontFamily=Verdana;fontSize=10;" vertex="1" parent="1">
          <mxGeometry x="831" y="615" width="90" height="25" as="geometry" />
        </mxCell>
        <mxCell id="jTmxVJYuNMx-6TRiUGwE-36" value="testing_isometric.py" style="text;html=1;strokeColor=none;fillColor=none;align=center;verticalAlign=middle;whiteSpace=wrap;rounded=1;shadow=0;comic=0;fontFamily=Verdana;fontSize=10;" vertex="1" parent="1">
          <mxGeometry x="1040" y="620" width="90" height="25" as="geometry" />
        </mxCell>
        <mxCell id="jTmxVJYuNMx-6TRiUGwE-38" value="boat_saves.txt" style="text;html=1;strokeColor=none;fillColor=none;align=center;verticalAlign=middle;whiteSpace=wrap;rounded=1;shadow=0;comic=0;fontFamily=Verdana;fontSize=10;" vertex="1" parent="1">
          <mxGeometry x="1202" y="355" width="90" height="25" as="geometry" />
        </mxCell>
        <mxCell id="jTmxVJYuNMx-6TRiUGwE-39" value="60ftmulti_3.pol" style="text;html=1;strokeColor=none;fillColor=none;align=center;verticalAlign=middle;whiteSpace=wrap;rounded=1;shadow=0;comic=0;fontFamily=Verdana;fontSize=10;" vertex="1" parent="1">
          <mxGeometry x="1302" y="355" width="90" height="25" as="geometry" />
        </mxCell>
        <mxCell id="jTmxVJYuNMx-6TRiUGwE-40" value="Imoca60.pol" style="text;html=1;strokeColor=none;fillColor=none;align=center;verticalAlign=middle;whiteSpace=wrap;rounded=1;shadow=0;comic=0;fontFamily=Verdana;fontSize=10;" vertex="1" parent="1">
          <mxGeometry x="1402" y="355" width="90" height="25" as="geometry" />
        </mxCell>
        <mxCell id="jTmxVJYuNMx-6TRiUGwE-41" value="J80.pol" style="text;html=1;strokeColor=none;fillColor=none;align=center;verticalAlign=middle;whiteSpace=wrap;rounded=1;shadow=0;comic=0;fontFamily=Verdana;fontSize=10;" vertex="1" parent="1">
          <mxGeometry x="1202" y="390" width="90" height="25" as="geometry" />
        </mxCell>
        <mxCell id="jTmxVJYuNMx-6TRiUGwE-42" value="J105.pol" style="text;html=1;strokeColor=none;fillColor=none;align=center;verticalAlign=middle;whiteSpace=wrap;rounded=1;shadow=0;comic=0;fontFamily=Verdana;fontSize=10;" vertex="1" parent="1">
          <mxGeometry x="1302" y="390" width="90" height="25" as="geometry" />
        </mxCell>
        <mxCell id="jTmxVJYuNMx-6TRiUGwE-43" value="Maxi_multi_2013.pol" style="text;html=1;strokeColor=none;fillColor=none;align=center;verticalAlign=middle;whiteSpace=wrap;rounded=1;shadow=0;comic=0;fontFamily=Verdana;fontSize=10;" vertex="1" parent="1">
          <mxGeometry x="1392" y="390" width="90" height="25" as="geometry" />
        </mxCell>
        <mxCell id="jTmxVJYuNMx-6TRiUGwE-44" value="MOD70.pol" style="text;html=1;strokeColor=none;fillColor=none;align=center;verticalAlign=middle;whiteSpace=wrap;rounded=1;shadow=0;comic=0;fontFamily=Verdana;fontSize=10;" vertex="1" parent="1">
          <mxGeometry x="1202" y="413" width="90" height="25" as="geometry" />
        </mxCell>
        <mxCell id="jTmxVJYuNMx-6TRiUGwE-45" value="Sunfast36.pol" style="text;html=1;strokeColor=none;fillColor=none;align=center;verticalAlign=middle;whiteSpace=wrap;rounded=1;shadow=0;comic=0;fontFamily=Verdana;fontSize=10;" vertex="1" parent="1">
          <mxGeometry x="1212" y="438" width="90" height="25" as="geometry" />
        </mxCell>
        <mxCell id="jTmxVJYuNMx-6TRiUGwE-46" value="Sunfast32i.pol" style="text;html=1;strokeColor=none;fillColor=none;align=center;verticalAlign=middle;whiteSpace=wrap;rounded=1;shadow=0;comic=0;fontFamily=Verdana;fontSize=10;" vertex="1" parent="1">
          <mxGeometry x="1402" y="413" width="90" height="25" as="geometry" />
        </mxCell>
        <mxCell id="jTmxVJYuNMx-6TRiUGwE-47" value="Sunfast32.pol" style="text;html=1;strokeColor=none;fillColor=none;align=center;verticalAlign=middle;whiteSpace=wrap;rounded=1;shadow=0;comic=0;fontFamily=Verdana;fontSize=10;" vertex="1" parent="1">
          <mxGeometry x="1307" y="413" width="90" height="25" as="geometry" />
        </mxCell>
        <mxCell id="jTmxVJYuNMx-6TRiUGwE-49" value="X37&lt;span style=&quot;color: rgba(0, 0, 0, 0); font-family: monospace; font-size: 0px; text-align: start; text-wrap-mode: nowrap;&quot;&gt;%3CmxGraphModel%3E%3Croot%3E%3CmxCell%20id%3D%220%22%2F%3E%3CmxCell%20id%3D%221%22%20parent%3D%220%22%2F%3E%3CmxCell%20id%3D%222%22%20value%3D%22MOD70.pol%22%20style%3D%22text%3Bhtml%3D1%3BstrokeColor%3Dnone%3BfillColor%3Dnone%3Balign%3Dcenter%3BverticalAlign%3Dmiddle%3BwhiteSpace%3Dwrap%3Brounded%3D1%3Bshadow%3D0%3Bcomic%3D0%3BfontFamily%3DVerdana%3BfontSize%3D10%3B%22%20vertex%3D%221%22%20parent%3D%221%22%3E%3CmxGeometry%20x%3D%221212%22%20y%3D%22480%22%20width%3D%2290%22%20height%3D%2225%22%20as%3D%22geometry%22%2F%3E%3C%2FmxCell%3E%3C%2Froot%3E%3C%2FmxGraphModel%3E&lt;/span&gt;.pol" style="text;html=1;strokeColor=none;fillColor=none;align=center;verticalAlign=middle;whiteSpace=wrap;rounded=1;shadow=0;comic=0;fontFamily=Verdana;fontSize=10;" vertex="1" parent="1">
          <mxGeometry x="1212" y="480" width="90" height="25" as="geometry" />
        </mxCell>
        <mxCell id="jTmxVJYuNMx-6TRiUGwE-50" value="Sunfast3200.pol" style="text;html=1;strokeColor=none;fillColor=none;align=center;verticalAlign=middle;whiteSpace=wrap;rounded=1;shadow=0;comic=0;fontFamily=Verdana;fontSize=10;" vertex="1" parent="1">
          <mxGeometry x="1307" y="438" width="90" height="25" as="geometry" />
        </mxCell>
        <mxCell id="jTmxVJYuNMx-6TRiUGwE-51" value="Swan60.pol" style="text;html=1;strokeColor=none;fillColor=none;align=center;verticalAlign=middle;whiteSpace=wrap;rounded=1;shadow=0;comic=0;fontFamily=Verdana;fontSize=10;" vertex="1" parent="1">
          <mxGeometry x="1402" y="455" width="90" height="25" as="geometry" />
        </mxCell>
        <mxCell id="jTmxVJYuNMx-6TRiUGwE-52" value="VO70.pol" style="text;html=1;strokeColor=none;fillColor=none;align=center;verticalAlign=middle;whiteSpace=wrap;rounded=1;shadow=0;comic=0;fontFamily=Verdana;fontSize=10;" vertex="1" parent="1">
          <mxGeometry x="1330" y="455" width="90" height="25" as="geometry" />
        </mxCell>
        <mxCell id="jTmxVJYuNMx-6TRiUGwE-53" value="Sunfast3600Option2.pol" style="text;html=1;strokeColor=none;fillColor=none;align=center;verticalAlign=middle;whiteSpace=wrap;rounded=1;shadow=0;comic=0;fontFamily=Verdana;fontSize=10;" vertex="1" parent="1">
          <mxGeometry x="1230" y="455" width="90" height="25" as="geometry" />
        </mxCell>
        <mxCell id="jTmxVJYuNMx-6TRiUGwE-54" value="Sunfast3600.pol" style="text;html=1;strokeColor=none;fillColor=none;align=center;verticalAlign=middle;whiteSpace=wrap;rounded=1;shadow=0;comic=0;fontFamily=Verdana;fontSize=10;" vertex="1" parent="1">
          <mxGeometry x="1397" y="440" width="90" height="25" as="geometry" />
        </mxCell>
        <mxCell id="jTmxVJYuNMx-6TRiUGwE-57" value="Volvoocean65.pol" style="text;html=1;strokeColor=none;fillColor=none;align=center;verticalAlign=middle;whiteSpace=wrap;rounded=1;shadow=0;comic=0;fontFamily=Verdana;fontSize=10;" vertex="1" parent="1">
          <mxGeometry x="1302" y="480" width="90" height="25" as="geometry" />
        </mxCell>
        <mxCell id="jTmxVJYuNMx-6TRiUGwE-58" value="Transpac52.pol" style="text;html=1;strokeColor=none;fillColor=none;align=center;verticalAlign=middle;whiteSpace=wrap;rounded=1;shadow=0;comic=0;fontFamily=Verdana;fontSize=10;" vertex="1" parent="1">
          <mxGeometry x="1402" y="480" width="90" height="25" as="geometry" />
        </mxCell>
        <mxCell id="jTmxVJYuNMx-6TRiUGwE-59" value="X40carb.pol" style="text;html=1;strokeColor=none;fillColor=none;align=center;verticalAlign=middle;whiteSpace=wrap;rounded=1;shadow=0;comic=0;fontFamily=Verdana;fontSize=10;" vertex="1" parent="1">
          <mxGeometry x="1242" y="510" width="90" height="25" as="geometry" />
        </mxCell>
      </root>
    </mxGraphModel>
  </diagram>
</mxfile>
